Coordinates
version=1
nRows=17
nColumns=40
inDegrees=yes

Units are S.I. units (second, meters, Newtons, ...)
Angles are in degrees.

endheader
time	pelvis_tilt	pelvis_list	pelvis_rotation	pelvis_tx	pelvis_ty	pelvis_tz	hip_flexion_r	hip_adduction_r	hip_rotation_r	knee_angle_r	knee_angle_r_beta	ankle_angle_r	subtalar_angle_r	mtp_angle_r	hip_flexion_l	hip_adduction_l	hip_rotation_l	knee_angle_l	knee_angle_l_beta	ankle_angle_l	subtalar_angle_l	mtp_angle_l	lumbar_extension	lumbar_bending	lumbar_rotation	arm_flex_r	arm_add_r	arm_rot_r	elbow_flex_r	pro_sup_r	wrist_flex_r	wrist_dev_r	arm_flex_l	arm_add_l	arm_rot_l	elbow_flex_l	pro_sup_l	wrist_flex_l	wrist_dev_l
     39.10000000	     -5.96895847	     -4.63546825	      3.98255112	      1.01822434	      0.93065836	      0.49386120	     15.16577866	      2.34125686	    -20.70431617	     14.67916806	     14.67916806	      9.00398106	      4.94651499	     -4.31734692	     36.38759788	    -13.29241273	     -0.20018844	     53.46566067	     53.46566067	     11.43979723	    -17.86394203	     12.54051203	    -12.33316789	      5.90820809	      4.76861910	     24.16460738	    -15.65453137	      5.01662610	     41.07701637	     45.03900019	      0.00000000	      0.00000000	     -0.06109029	     -6.69422730	     -6.32741253	     47.61963364	     45.24620406	      0.00000000	      0.00000000
     39.11192857	     -5.98852778	     -4.58909906	      4.07581076	      1.01630608	      0.93047520	      0.49400994	     14.93673149	      2.29902230	    -20.54735783	     14.96045408	     14.96045408	      9.36866699	      4.61922144	     -4.47156029	     37.00491781	    -13.05139234	     -0.11479984	     50.95504370	     50.95504370	     11.51006497	    -17.70281370	     12.50674279	    -12.37630569	      5.91049045	      4.57249229	     26.01584832	    -15.49605496	      4.98990407	     42.52468869	     45.00562904	      0.00000000	      0.00000000	     -1.15150527	     -6.74015563	     -6.53812607	     46.44384486	     45.26767227	      0.00000000	      0.00000000
     39.12385714	     -5.98695565	     -4.54245562	      4.19781994	      1.01452612	      0.93028386	      0.49409723	     14.65769924	      2.25875806	    -20.42989350	     15.20587446	     15.20587446	      9.76589377	      4.29394282	     -4.56096041	     37.41780379	    -12.78189683	     -0.03135167	     48.18382920	     48.18382920	     11.34996190	    -17.51776321	     12.30258918	    -12.40213059	      5.95139331	      4.32012470	     27.75473918	    -15.31687990	      5.12959090	     44.51790902	     44.94409885	      0.00000000	      0.00000000	     -2.07535447	     -6.72455326	     -6.98248276	     44.84166162	     45.31538462	      0.00000000	      0.00000000
     39.13578571	     -5.96921091	     -4.49149627	      4.28467113	      1.01281664	      0.93011715	      0.49417146	     14.33611103	      2.22702238	    -20.32790649	     15.39859877	     15.39859877	     10.17015050	      4.04765012	     -4.62158994	     37.62768776	    -12.50787757	      0.01838490	     45.20844173	     45.20844173	     11.16412260	    -17.14110963	     12.19179927	    -12.44041058	      5.95115060	      4.30071341	     29.34652788	    -15.29721227	      5.30684660	     46.51176664	     44.87950088	      0.00000000	      0.00000000	     -2.85788156	     -6.65538830	     -7.45196925	     43.32452222	     45.36487596	      0.00000000	      0.00000000
     39.14771429	     -6.03034190	     -4.56929895	      4.37421582	      1.01105693	      0.92974378	      0.49416596	     14.13132842	      2.30329890	    -20.29092515	     15.62450111	     15.62450111	     10.63981194	      3.95150114	     -4.33979067	     37.81671842	    -12.33459391	      0.12920363	     42.07584255	     42.07584255	     10.41805877	    -16.78911998	     10.68281759	    -12.46768854	      6.12988488	      4.97048432	     29.67334090	    -16.55555883	      6.51816725	     51.16276413	     44.69925668	      0.00000000	      0.00000000	     -2.40798402	     -5.98246974	     -9.64861999	     39.88208181	     45.65908258	      0.00000000	      0.00000000
     39.15964286	     -5.99847683	     -4.55055837	      4.45960434	      1.00944800	      0.92954807	      0.49407125	     13.76133848	      2.30267339	    -20.21680373	     15.74131637	     15.74131637	     11.00084397	      3.82135676	     -4.44157480	     37.82506434	    -12.06552252	      0.17818583	     39.03528938	     39.03528938	     10.37444091	    -16.01098858	     11.02936518	    -12.52756062	      6.16612009	      4.85505945	     31.33280484	    -16.33513805	      6.41389393	     52.55670393	     44.67003015	      0.00000000	      0.00000000	     -3.34542278	     -6.08678530	     -9.79791642	     39.08763571	     45.66976139	      0.00000000	      0.00000000
     39.17157143	     -5.99872114	     -4.57570899	      4.57583714	      1.00788293	      0.92926888	      0.49380159	     13.40359704	      2.33645188	    -20.19780346	     15.81676349	     15.81676349	     11.37098081	      3.73346155	     -4.48732371	     37.83301325	    -11.80708606	      0.25627535	     36.06540202	     36.06540202	     10.31857176	    -15.04750600	     11.25737175	    -12.55841455	      6.27923356	      4.53206205	     32.82888111	    -16.05104864	      6.46105859	     54.63995833	     44.61211469	      0.00000000	      0.00000000	     -4.17782424	     -6.15837892	    -10.07545600	     37.95947188	     45.69872526	      0.00000000	      0.00000000
     39.18350000	     -6.03384114	     -4.66816229	      4.68845954	      1.00637390	      0.92890657	      0.49341251	     13.06140326	      2.42467943	    -20.27250523	     15.86070503	     15.86070503	     11.82960890	      3.81088033	     -4.25484399	     37.84362184	    -11.63220549	      0.23408745	     33.16967059	     33.16967059	     10.04590328	    -13.92355281	     10.92227426	    -12.59697770	      6.46199720	      5.01673637	     33.09195502	    -17.03861287	      7.04760456	     59.29780970	     44.48028784	      0.00000000	      0.00000000	     -4.06576636	     -5.89886655	    -11.34480633	     35.77154616	     45.88801182	      0.00000000	      0.00000000
     39.19542857	     -6.03964742	     -4.69896584	      4.79219530	      1.00498982	      0.92865633	      0.49290669	     12.62801677	      2.47460772	    -20.24586591	     15.79624083	     15.79624083	     12.16471073	      3.78214863	     -4.31410734	     37.76396188	    -11.40901535	      0.07378888	     30.43648096	     30.43648096	     10.04660566	    -12.60516293	     11.24358237	    -12.58955416	      6.55833945	      4.70299292	     34.48806680	    -16.63085496	      6.92376599	     60.96225989	     44.44574997	      0.00000000	      0.00000000	     -4.89024059	     -6.05355477	    -11.45651417	     35.01618992	     45.89541312	      0.00000000	      0.00000000
     39.20735714	     -6.06936926	     -4.80582743	      4.91980101	      1.00367391	      0.92834905	      0.49224618	     12.17534605	      2.59729810	    -20.34228652	     15.66181523	     15.66181523	     12.54623926	      3.91668007	     -4.21567529	     37.74953254	    -11.26787091	     -0.23091107	     27.95753659	     27.95753659	      9.95462924	    -11.12534419	     11.33869251	    -12.59750796	      6.75047766	      4.91722278	     34.85205768	    -17.14956370	      7.02148194	     65.17612337	     44.35791350	      0.00000000	      0.00000000	     -5.09941262	     -6.02027433	    -12.00033577	     33.65089494	     45.98856814	      0.00000000	      0.00000000
     39.21928571	     -6.08359841	     -4.88532963	      5.03011967	      1.00249381	      0.92809971	      0.49146193	     11.66634622	      2.70624858	    -20.36843932	     15.46500156	     15.46500156	     12.88485377	      3.98416394	     -4.19058646	     37.67130483	    -11.10016662	     -0.67310344	     25.69772896	     25.69772896	      9.86298730	     -9.74135540	     11.59349330	    -12.58095415	      6.90258659	      4.87625246	     35.51350855	    -17.15035156	      6.81605722	     68.33993548	     44.32566282	      0.00000000	      0.00000000	     -5.54274248	     -6.12918049	    -12.17041602	     32.61253067	     46.02828655	      0.00000000	      0.00000000
     39.23121429	     -6.11880739	     -4.94615289	      5.14258175	      1.00143027	      0.92781742	      0.49051609	     11.13776070	      2.79913812	    -20.35875942	     15.20604368	     15.20604368	     13.18911432	      4.02807192	     -4.22418738	     37.58623027	    -10.87834026	     -1.17247462	     23.70737568	     23.70737568	      9.73930159	     -8.57480836	     11.91410521	    -12.49749117	      7.02450717	      4.40382402	     36.61189810	    -16.62082687	      6.75976338	     70.34396286	     44.28052535	      0.00000000	      0.00000000	     -6.30033620	     -6.28634560	    -12.16574211	     32.00194860	     46.02198686	      0.00000000	      0.00000000
     39.24314286	     -6.13943216	     -5.00864981	      5.24349651	      1.00054015	      0.92754638	      0.48943216	     10.55287804	      2.90207694	    -20.33996756	     14.89137211	     14.89137211	     13.48904714	      4.09674272	     -4.24532112	     37.46829165	    -10.67193204	     -1.82817278	     22.04868939	     22.04868939	      9.56588971	     -7.52858172	     12.19176543	    -12.42101364	      7.16106857	      4.01200822	     37.40473750	    -16.21201756	      6.78917614	     72.85181541	     44.21471488	      0.00000000	      0.00000000	     -7.00867207	     -6.43297591	    -12.17110749	     31.44371687	     46.01832710	      0.00000000	      0.00000000
     39.25507143	     -6.17285204	     -5.12434842	      5.31242009	      0.99983550	      0.92715361	      0.48828927	      9.96117295	      3.06516858	    -20.31577733	     14.55283557	     14.55283557	     13.78354367	      4.19033800	     -4.29151096	     37.41150096	    -10.53923337	     -2.56531965	     20.85312499	     20.85312499	      9.34519836	     -6.62841641	     12.27469660	    -12.38463242	      7.32212146	      4.55271644	     37.05815077	    -17.04917632	      6.55026687	     77.83292165	     44.11923977	      0.00000000	      0.00000000	     -7.13647351	     -6.52321349	    -12.10125399	     30.82253894	     46.02970839	      0.00000000	      0.00000000
     39.26700000	     -6.17703726	     -5.19645635	      5.39426210	      0.99932252	      0.92680778	      0.48695148	      9.31273319	      3.17975899	    -20.24111744	     14.19807826	     14.19807826	     14.07728790	      4.21182624	     -4.30608341	     37.23499836	    -10.31069052	     -3.18541680	     19.92799816	     19.92799816	      9.07412749	     -6.17072473	     12.45978617	    -12.24804235	      7.46762050	      4.08170803	     37.73136378	    -16.40698646	      6.41334528	     80.11229796	     44.07263947	      0.00000000	      0.00000000	     -7.79422039	     -6.64481455	    -12.01072967	     30.24729948	     46.01490344	      0.00000000	      0.00000000
     39.27892857	     -6.19029997	     -5.30201640	      5.41123929	      0.99905980	      0.92631230	      0.48560152	      8.66545500	      3.33893339	    -20.11579433	     13.84888589	     13.84888589	     14.36764943	      4.21225641	     -4.38422751	     37.03941210	    -10.15587855	     -3.85025422	     19.38881044	     19.38881044	      8.70103049	     -5.89711706	     12.25286761	    -12.14863154	      7.59913358	      4.47330273	     37.41591250	    -16.86502119	      5.97645604	     84.21872063	     44.01649471	      0.00000000	      0.00000000	     -8.04306407	     -6.76666808	    -11.84332734	     29.89969554	     46.01021956	      0.00000000	      0.00000000
     39.29085714	     -6.17095327	     -5.34748047	      5.42477563	      0.99902390	      0.92580522	      0.48405836	      7.98247072	      3.41244559	    -19.98862497	     13.54981508	     13.54981508	     14.69255742	      4.21845653	     -4.40738240	     36.70113237	     -9.91497078	     -4.36062190	     19.10301400	     19.10301400	      8.39547589	     -5.90635429	     12.32299157	    -11.97288661	      7.70104388	      4.00067126	     38.00551170	    -16.18384664	      5.93448679	     86.09902894	     43.97264703	      0.00000000	      0.00000000	     -8.69808506	     -6.85933839	    -11.79471078	     29.47651588	     45.99832450	      0.00000000	      0.00000000
